<svg viewBox="0 0 568 91" xmlns="http://www.w3.org/2000/svg"><path d="m.6 90.4v-1.8h1.2c1.06667 0 1.8-.2 2.2-.6.4-.3333.6-1.0333.6-2.1v-80.80001c0-1.13333-.2-1.89999-.6-2.3-.4-.4-1.1-.59999-2.1-.59999h-1.3v-1.700006h21.4v1.700006h-15.6v86.4h15.6v1.8zm54.8312-13.7c-4.5333 0-7.9999-.5667-10.3999-1.7-2.4-1.2-4.0334-2.8667-4.9-5-.8-2.2-1.2-4.8-1.2-7.8v-23.3c0-1.1333-.2-1.9-.6-2.3s-1.1-.6-2.1-.6h-8.2v-1.7h10.9v-12.2c0-1-.2-1.7-.6-2.1-.4-.4667-1.1334-.7-2.2-.7h-3.7v-1.7h8.2999v16.7h11.9001v1.7h-11.9001v26.2c0 2.7333.3001 5.0667.9001 7 .6666 1.8667 2.0333 3.3 4.1 4.3 2.1333.9333 5.3666 1.4333 9.6999 1.5zm3.9829-1.7v-1.7h3.7c1.0666 0 1.8-.2 2.2-.6.4-.4667.6-1.2.6-2.2v-59.7c0-1-.2-1.7-.6-2.1-.4-.46667-1.1334-.7-2.2-.7h-3.7v-1.7h8.3v35.1c1.2666-2.6 3.3666-4.7 6.3-6.3 3-1.6667 6.2-2.5 9.6-2.5 5.1333 0 9.3 1.5 12.5 4.5 3.2 2.9333 4.7999 7.2 4.7999 12.8v23.4h5.4v1.7h-13.6999v-1.7h3.7c1.0666 0 1.8-.2 2.2-.6.4-.4667.6-1.2.6-2.2v-20.6c0-5.0667-1.4667-8.9-4.4-11.5-2.8667-2.6667-6.5667-4-11.1-4-3 0-5.7.6333-8.1 1.9-2.4 1.2-4.3 2.9333-5.7 5.2-1.4 2.2-2.1 4.8333-2.1 7.9v23.9h5.4v1.7zm90.0179-24.1c.067-3.2-.633-6.0333-2.1-8.5-1.467-2.5333-3.5-4.5-6.1-5.9-2.533-1.4667-5.5-2.2-8.9-2.2-4.733.0667-8.733 1.6333-12 4.7-3.2 3-5.167 6.9333-5.9 11.8zm-17.1 25.8c-3.8 0-7.233-.9333-10.3-2.8-3-1.8667-5.367-4.4333-7.1-7.7-1.733-3.3333-2.6-7.1667-2.6-11.5.067-4.3333.933-8.1667 2.6-11.5 1.733-3.3333 4.1-5.9333 7.1-7.8 3-1.9333 6.433-2.9 10.3-2.9 3.733 0 7 .8 9.8 2.4 2.867 1.5333 5.1 3.7 6.7 6.5 1.667 2.7333 2.5 5.9 2.5 9.5v1.7l-37.1-.1-.1 2.2c-.133 3.6667.567 7.0333 2.1 10.1s3.7 5.5333 6.5 7.4c2.867 1.8 6.067 2.7333 9.6 2.8 3.733-.0667 6.867-.6667 9.4-1.8 2.533-1.2 4.4-2.7333 5.6-4.6l1.4 1.1c-1.4 2.0667-3.5 3.7667-6.3 5.1-2.8 1.2667-6.167 1.9-10.1 1.9zm29.047 13.7v-1.8h15.6v-86.4h-15.6v-1.700006h21.4v1.700006h-1.3c-1 0-1.7.19999-2.1.59999-.4.40001-.6 1.16667-.6 2.3v80.80001c0 1.0667.2 1.7667.6 2.1.4.4 1.133.6 2.2.6h1.2v1.8zm31.531-15.4v-1.7h3.7c1.067 0 1.8-.2 2.2-.6.4-.4667.6-1.2.6-2.2v-31.7c0-1-.2-1.7-.6-2.1-.4-.4667-1.133-.7-2.2-.7h-3.7v-1.7h8.3v7.5c1.267-2.5333 3.267-4.7 6-6.5s6.033-2.7 9.9-2.7c5.133 0 9.3 1.5 12.5 4.5 3.2 2.9333 4.8 7.2 4.8 12.8v23.4h5.4v1.7h-13.7v-1.7h3.7c1.067 0 1.8-.2 2.2-.6.4-.4667.6-1.2.6-2.2v-20.6c0-5.0667-1.467-8.9-4.4-11.5-2.867-2.6667-6.567-4-11.1-4-2.933 0-5.633.6333-8.1 1.9-2.4 1.2-4.3 2.9333-5.7 5.2-1.4 2.2-2.1 4.8-2.1 7.8v24h5.4v1.7zm69.065 1.7c-2.867 0-5.467-.5667-7.8-1.7-2.267-1.1333-4.1-2.7-5.5-4.7-1.333-2.0667-2-4.4333-2-7.1 0-3.8 1.467-6.9333 4.4-9.4 3-2.5333 6.967-3.9 11.9-4.1 3.333-.1333 6.233.1 8.7.7 2.533.5333 4.833 1.1667 6.9 1.9v-4.8c0-3.8667-1.333-7.1-4-9.7-2.6-2.6-6.467-3.7667-11.6-3.5-2.2.0667-4.3.6-6.3 1.6-1.933 1-3.367 2.2667-4.3 3.8-.333.6-.433 1.1333-.3 1.6.2.4.367.8333.5 1.3.2.4.133.9333-.2 1.6-.267.4667-.7.7667-1.3.9-.6.0667-1.133-.0667-1.6-.4-.933-.7333-1.133-1.7333-.6-3 1-2.6667 2.833-4.8333 5.5-6.5s5.533-2.5667 8.6-2.7c5.6-.2667 9.9 1.0667 12.9 4s4.5 6.5667 4.5 10.9v16.1c0 2.8667.867 5.2333 2.6 7.1 1.733 1.8 3.933 2.7 6.6 2.7v1.7c-2.8 0-5.133-.7667-7-2.3-1.8-1.6-2.933-3.4333-3.4-5.5-.867 2.0667-2.233 3.8-4.1 5.2-1.8 1.4-3.867 2.4667-6.2 3.2s-4.633 1.1-6.9 1.1zm0-1.7c2.4 0 4.867-.4667 7.4-1.4 2.6-1 4.767-2.4667 6.5-4.4 1.8-2 2.7-4.5 2.7-7.5v-7.3c-1.667-.8667-3.8-1.6-6.4-2.2s-5.667-.8333-9.2-.7c-4.4.0667-7.933 1.2-10.6 3.4-2.6 2.2-3.9 4.9667-3.9 8.3 0 3.4667 1.267 6.3 3.8 8.5 2.6 2.1333 5.833 3.2333 9.7 3.3zm34.06 0v-1.7h3.7c1.067 0 1.8-.2 2.2-.6.4-.4667.6-1.2.6-2.2v-31.7c0-1-.2-1.7-.6-2.1-.4-.4667-1.133-.7-2.2-.7h-3.7v-1.7h8.3v7.1c1-2.5333 2.867-4.6333 5.6-6.3 2.8-1.7333 5.867-2.6 9.2-2.6 3.667 0 6.933 1.0667 9.8 3.2s4.733 4.8 5.6 8c.933-3.2 2.833-5.8667 5.7-8 2.933-2.1333 6.267-3.2 10-3.2 4.8 0 8.7 1.5 11.7 4.5 3.067 2.9333 4.6 7.2 4.6 12.8v23.5h5.4v1.7h-13.7v-1.7h3.7c1.067 0 1.8-.2 2.2-.6.4-.4667.6-1.2.6-2.2v-20.7c0-5.0667-1.367-8.9-4.1-11.5-2.667-2.6667-6.133-4-10.4-4-4.333 0-7.9 1.4667-10.7 4.4-2.733 2.8667-4.1 6.5667-4.1 11.1v23.5h5.5v1.7h-13.7v-1.7h3.7c1.533 0 2.433-.5667 2.7-1.7v-21.8c0-4.5333-1.367-8.2333-4.1-11.1-2.667-2.9333-6.133-4.4-10.4-4.4-4.333 0-7.9 1.3667-10.7 4.1-2.733 2.6667-4.1 6.1667-4.1 10.5v24.4h5.4v1.7zm119.022-24.1c.067-3.2-.633-6.0333-2.1-8.5-1.467-2.5333-3.5-4.5-6.1-5.9-2.533-1.4667-5.5-2.2-8.9-2.2-4.733.0667-8.733 1.6333-12 4.7-3.2 3-5.167 6.9333-5.9 11.8zm-17.1 25.8c-3.8 0-7.233-.9333-10.3-2.8-3-1.8667-5.367-4.4333-7.1-7.7-1.733-3.3333-2.6-7.1667-2.6-11.5.067-4.3333.933-8.1667 2.6-11.5 1.733-3.3333 4.1-5.9333 7.1-7.8 3-1.9333 6.433-2.9 10.3-2.9 3.733 0 7 .8 9.8 2.4 2.867 1.5333 5.1 3.7 6.7 6.5 1.667 2.7333 2.5 5.9 2.5 9.5v1.7l-37.1-.1-.1 2.2c-.133 3.6667.567 7.0333 2.1 10.1s3.7 5.5333 6.5 7.4c2.867 1.8 6.067 2.7333 9.6 2.8 3.733-.0667 6.867-.6667 9.4-1.8 2.533-1.2 4.4-2.7333 5.6-4.6l1.4 1.1c-1.4 2.0667-3.5 3.7667-6.3 5.1-2.8 1.2667-6.167 1.9-10.1 1.9zm22.59-1.7v-1.7h7.2c1.067 0 1.8-.2 2.2-.6.4-.4667.6-1.2.6-2.2v-59.7c0-1-.2-1.7-.6-2.1-.4-.46667-1.133-.7-2.2-.7h-3.7v-1.7h8.3v67h9.4v1.7zm63.846-24.1c.067-3.2-.633-6.0333-2.1-8.5-1.467-2.5333-3.5-4.5-6.1-5.9-2.533-1.4667-5.5-2.2-8.9-2.2-4.733.0667-8.733 1.6333-12 4.7-3.2 3-5.167 6.9333-5.9 11.8zm-17.1 25.8c-3.8 0-7.233-.9333-10.3-2.8-3-1.8667-5.367-4.4333-7.1-7.7-1.733-3.3333-2.6-7.1667-2.6-11.5.067-4.3333.933-8.1667 2.6-11.5 1.733-3.3333 4.1-5.9333 7.1-7.8 3-1.9333 6.433-2.9 10.3-2.9 3.733 0 7 .8 9.8 2.4 2.867 1.5333 5.1 3.7 6.7 6.5 1.667 2.7333 2.5 5.9 2.5 9.5v1.7l-37.1-.1-.1 2.2c-.133 3.6667.567 7.0333 2.1 10.1s3.7 5.5333 6.5 7.4c2.867 1.8 6.067 2.7333 9.6 2.8 3.733-.0667 6.867-.6667 9.4-1.8 2.533-1.2 4.4-2.7333 5.6-4.6l1.4 1.1c-1.4 2.0667-3.5 3.7667-6.3 5.1-2.8 1.2667-6.167 1.9-10.1 1.9zm45.247 0c-3.733 0-7.067-.9333-10-2.8-2.867-1.9333-4.5-4.5-4.9-7.7-.133-1.3333-.1-2.3333.1-3 .2-.7333.467-1.2333.8-1.5.667-.6 1.433-.6667 2.3-.2.933.4 1.233 1.1667.9 2.3-.2.6667-.533 1.0667-1 1.2-.4.1333-.733.3333-1 .6s-.3.9-.1 1.9c.533 2.2 2.067 4 4.6 5.4s5.3 2.1 8.3 2.1c3.733 0 6.867-1 9.4-3s3.767-4.4333 3.7-7.3c-.067-2.3333-.933-4.1-2.6-5.3-1.667-1.2667-3.7-2.4-6.1-3.4-1.067-.4667-2.267-.9333-3.6-1.4s-2.533-.9-3.6-1.3c-1.733-.6667-3.4-1.4-5-2.2s-2.9-1.8-3.9-3-1.5-2.7333-1.5-4.6c0-3.3333 1.233-6 3.7-8s5.533-3 9.2-3c2.133 0 4.367.4333 6.7 1.3s4.2 2.3333 5.6 4.4c.933 1.3333 1.433 2.5 1.5 3.5.133 1 .033 1.7333-.3 2.2-.533.7333-1.3 1-2.3.8-.933-.2667-1.333-.9333-1.2-2 .067-.5333.233-.9.5-1.1.333-.2667.567-.5667.7-.9.2-.3333.1-.8333-.3-1.5-1.333-1.9333-3.033-3.2333-5.1-3.9-2-.7333-3.933-1.1-5.8-1.1-3.267 0-5.967.8667-8.1 2.6-2.067 1.7333-3.1 3.9667-3.1 6.7 0 2.2.9 3.8667 2.7 5s3.833 2.1667 6.1 3.1c1.067.4 2.233.8333 3.5 1.3 1.333.4 2.567.8333 3.7 1.3 2.933 1.1333 5.4 2.5 7.4 4.1s2.967 3.7333 2.9 6.4c-.067 3.4667-1.5 6.3333-4.3 8.6s-6.3 3.4-10.5 3.4zm40.234 0c-3.733 0-7.066-.9333-10-2.8-2.866-1.9333-4.5-4.5-4.9-7.7-.133-1.3333-.1-2.3333.1-3 .2-.7333.467-1.2333.8-1.5.667-.6 1.434-.6667 2.3-.2.934.4 1.234 1.1667.9 2.3-.2.6667-.533 1.0667-1 1.2-.4.1333-.733.3333-1 .6-.266.2667-.3.9-.1 1.9.534 2.2 2.067 4 4.6 5.4 2.534 1.4 5.3 2.1 8.3 2.1 3.734 0 6.867-1 9.4-3 2.534-2 3.767-4.4333 3.7-7.3-.066-2.3333-.933-4.1-2.6-5.3-1.666-1.2667-3.7-2.4-6.1-3.4-1.066-.4667-2.266-.9333-3.6-1.4-1.333-.4667-2.533-.9-3.6-1.3-1.733-.6667-3.4-1.4-5-2.2s-2.9-1.8-3.9-3-1.5-2.7333-1.5-4.6c0-3.3333 1.234-6 3.7-8 2.467-2 5.534-3 9.2-3 2.134 0 4.367.4333 6.7 1.3 2.334.8667 4.2 2.3333 5.6 4.4.934 1.3333 1.434 2.5 1.5 3.5.134 1 .034 1.7333-.3 2.2-.533.7333-1.3 1-2.3.8-.933-.2667-1.333-.9333-1.2-2 .067-.5333.234-.9.5-1.1.334-.2667.567-.5667.7-.9.2-.3333.1-.8333-.3-1.5-1.333-1.9333-3.033-3.2333-5.1-3.9-2-.7333-3.933-1.1-5.8-1.1-3.266 0-5.966.8667-8.1 2.6-2.066 1.7333-3.1 3.9667-3.1 6.7 0 2.2.9 3.8667 2.7 5s3.834 2.1667 6.1 3.1c1.067.4 2.234.8333 3.5 1.3 1.334.4 2.567.8333 3.7 1.3 2.934 1.1333 5.4 2.5 7.4 4.1s2.967 3.7333 2.9 6.4c-.066 3.4667-1.5 6.3333-4.3 8.6s-6.3 3.4-10.5 3.4z"/></svg>
